# xmcd
#
# Track frame offsets: 
#        150
#        17400
#        32515
#        48405
#        71655
#        99700
#        111875
#        127075
#
# Disc length: 2073 seconds
#
# Revision: 4
# Processed by: cddbd v1.5.2PL0 Copyright (c) Steve Scherf et al.
# Submitted via: ExactAudioCopy v1.0b6
#
DISCID=67081708
DTITLE=白井貴子 and Crazy Boys - COSMIC CHILD Disc 2 50DH-723-4
DYEAR=1987
DGENRE=JPop
TTITLE0=Never Change
TTITLE1=Bambi Beat
TTITLE2=African Dreamer
TTITLE3=Antique Moonの丘 (New mix)
TTITLE4=Moon Light Loneliness
TTITLE5=Long Tall Danny
TTITLE6=Egg and Chicken
TTITLE7=COSMIC CHILD
EXTD=YEAR: 1987
EXTT0=
EXTT1=
EXTT2=
EXTT3=
EXTT4=
EXTT5=
EXTT6=
EXTT7=
PLAYORDER=
